<svg xmlns="http://www.w3.org/2000/svg" width="64" height="64" viewBox="0 0 64 64" fill="none">
  <defs>
    <linearGradient id="bg" x1="11" y1="10" x2="54" y2="54" gradientUnits="userSpaceOnUse">
      <stop stop-color="#F8FFFD"/>
      <stop offset="0.5" stop-color="#E7F8F5"/>
      <stop offset="1" stop-color="#EAF0FF"/>
    </linearGradient>
    <linearGradient id="a" x1="18" y1="20" x2="44" y2="44" gradientUnits="userSpaceOnUse">
      <stop stop-color="#0D9488"/>
      <stop offset="1" stop-color="#2563EB"/>
    </linearGradient>
    <filter id="shadow" x="4" y="4" width="56" height="56" color-interpolation-filters="sRGB" filterUnits="userSpaceOnUse">
      <feFlood flood-opacity="0" result="BackgroundImageFix"/>
      <feColorMatrix in="SourceAlpha" result="hardAlpha" type="matrix" values="0 0 0 0 0 0 0 0 0 0 0 0 0 0 0 0 0 0 127 0"/>
      <feOffset dy="3"/>
      <feGaussianBlur stdDeviation="4"/>
      <feComposite in2="hardAlpha" operator="out"/>
      <feColorMatrix type="matrix" values="0 0 0 0 0.036 0 0 0 0 0.298 0 0 0 0 0.369 0 0 0 0.18 0"/>
      <feBlend in2="BackgroundImageFix" result="effect1_dropShadow"/>
      <feBlend in="SourceGraphic" in2="effect1_dropShadow" result="shape"/>
    </filter>
  </defs>
  <g filter="url(#shadow)">
    <rect x="9" y="8" width="46" height="46" rx="13" fill="url(#bg)"/>
    <rect x="9.75" y="8.75" width="44.5" height="44.5" rx="12.25" stroke="#0F766E" stroke-opacity="0.16" stroke-width="1.5"/>
  </g>
  <path d="M20.5 31.5c0-6.35 5.15-11.5 11.5-11.5 3.5 0 6.62 1.57 8.73 4.04" stroke="url(#a)" stroke-linecap="round" stroke-width="5"/>
  <path d="M42.5 20.5v8.9h-8.9" stroke="#0D9488" stroke-linecap="round" stroke-linejoin="round" stroke-width="5"/>
  <path d="M43.5 32.5C43.5 38.85 38.35 44 32 44c-3.5 0-6.62-1.57-8.73-4.04" stroke="url(#a)" stroke-linecap="round" stroke-width="5"/>
  <path d="M21.5 43.5v-8.9h8.9" stroke="#2563EB" stroke-linecap="round" stroke-linejoin="round" stroke-width="5"/>
  <circle cx="32" cy="32" r="3.4" fill="#0F766E"/>
</svg>
